<?xml version="1.0" encoding="UTF-8"?>
<!DOCTYPE svg PUBLIC "-//W3C//DTD SVG 1.1//EN" "http://www.w3.org/Graphics/SVG/1.1/DTD/svg11.dtd">
<!-- Creator: CorelDRAW 2021.5 -->
<svg xmlns="http://www.w3.org/2000/svg" xml:space="preserve" width="297mm" height="210mm" version="1.1" style="shape-rendering:geometricPrecision; text-rendering:geometricPrecision; image-rendering:optimizeQuality; fill-rule:evenodd; clip-rule:evenodd"
viewBox="0 0 29700 21000"
 xmlns:xlink="http://www.w3.org/1999/xlink"
 xmlns:xodm="http://www.corel.com/coreldraw/odm/2003">
 <defs>
  <style type="text/css">
   <![CDATA[
    .str0 {stroke:#AB3A61;stroke-width:20;stroke-miterlimit:22.9256}
    .fil0 {fill:#F58634}
    .fil4 {fill:#1191C9}
    .fil2 {fill:#00AFEF}
    .fil3 {fill:#67CDF5}
    .fil1 {fill:#AB3A61}
   ]]>
  </style>
 </defs>
 <g id="Слой_x0020_1">
  <metadata id="CorelCorpID_0Corel-Layer"/>
  <g id="_3199187876688">
   <g>
    <path class="fil0" d="M17642.39 7861.78c2.71,-96.36 347.85,-496.81 358.01,-624.99 -140.4,-61.5 -408.45,17.62 -569.47,-39.94 -58.94,-196.06 -77.77,-526.59 -160.78,-581.7 -107.5,121.51 -327.94,448.91 -375.44,481.79 -158.15,-29.37 -358.63,-149.75 -485.64,-168.12 -3.63,67.66 88.1,324.73 110.73,388.24 91.57,256.86 386.81,579.51 640.76,459.66 129,-60.89 159.14,-291.98 -8.15,-353.3 -42.7,42.11 -37.95,78.69 -89.19,120.85 -254.92,-13.61 -170.28,-420.24 138.47,-322.26 489.58,155.36 304.3,795.83 -201.08,784.56 -125.38,-2.79 -229.04,-71.71 -311.98,-130.3 -73.85,-52.16 -173.55,-162.38 -244.19,-193.15 -75.38,26.31 -307.29,221.82 -328.37,314.28 107.74,90.3 503.96,37.26 654.85,77.25 75.29,173.53 28.91,505.21 120.46,575.16 89.37,-27.37 319.99,-339.82 422.06,-414.96 517.07,167.36 602.42,283.15 328.95,-373.07z"/>
    <path class="fil1 str0" d="M13819.64 8316.72c719.57,-389.63 1017.82,-549.57 1816.11,-707.05l717.01 -153.95c-933.51,-95.13 -2001.96,387.47 -2746.42,888.93 -222.87,150.12 -491.4,366.71 -681.78,538.95l-531.61 566.8c8.21,43.42 680.6,-684.36 1426.69,-1133.68z"/>
    <path class="fil2" d="M12399.91 8961.11c5.64,-3.93 27.11,-29.23 33.67,-36.89l119.07 -132.63c96.68,-105.56 323.89,-334.23 428.79,-419.85 322.55,-263.3 499.77,-414.3 879.99,-632.12 567.04,-324.86 836.08,-403.77 1409.25,-557.45 180.6,-48.42 398.77,-64.14 541.65,-95.29 -281.86,-43.97 -858.58,87.17 -1103.38,164.87 -500.48,158.83 -895.24,375.17 -1299.09,676.05 -66.06,49.21 -126.72,96.99 -188.32,150.53 -309.36,268.9 -595.28,561.96 -821.63,882.78z"/>
    <path class="fil0" d="M12463.56 10046.44c35.22,-18.03 278.97,-264.58 316.56,-300.15 683.36,-646.62 1666.1,-1402.76 2560.72,-1688.4 -74.15,-53.56 -740.58,233.68 -861.92,295.09 -278.96,141.2 -523.42,293.37 -752.98,465.12l-667.42 566.86c-101.44,100.01 -208.72,215.02 -305.67,317.69 -55.72,59.01 -97.35,107.44 -146.25,165.62 -38.89,46.27 -110.87,117.59 -143.04,178.17z"/>
    <path class="fil3" d="M15523.56 8089.08c1.45,49.55 30.26,26.2 51.58,69.82 11.49,23.54 8.92,70.97 12.88,102.76 22.06,-25.11 43.27,-39.43 64.67,-61.38l92.87 26.24c-5.08,-44.63 -25.48,-59.02 -20.58,-95.75 5.82,-43.57 25.84,-29.56 40.63,-88.27l-94.48 -2.7 -36.77 -72.38c-28.42,32.44 -15.09,46.6 -33.48,79.57 -20.56,36.86 -39.07,25.21 -77.32,42.09z"/>
    <path class="fil0" d="M11698.55 9567.42c55.12,37.87 57.2,38.08 57.89,121.04 71.62,-32.4 12.83,-45.64 129.64,-23.13 -20.31,-142.81 -16.95,-30.84 14.64,-148.56 -88.07,-2.34 -64.29,-4.89 -115.74,-60.83 -28.44,114.73 -15.08,60.26 -86.43,111.48z"/>
    <path class="fil1" d="M13601.18 9437.29c84.18,80.55 44.5,31.66 58.9,84.03l12.91 33.43c51.26,-48.01 31.96,-35.99 112.93,-21.11 -2.99,-40.79 -15.1,-39.53 -12.34,-71.23 3.92,-45 16.82,-27.34 32.61,-75.72 -107.35,-4.14 -55.12,-12.94 -113.03,-48.26 -58.88,85.11 20.15,23.01 -91.98,98.86z"/>
   </g>
   <path class="fil1" d="M13028.92 14106.05l3675.45 0 0 -1947.02 -3675.45 0 0 1947.02zm2432.87 -780.82l0 597.7 -597.69 0 -597.7 0 0 -597.7 0 -17.06 0 -76.86c0,-328.74 268.95,-597.69 597.7,-597.69 328.74,0 597.69,268.95 597.69,597.69l0 76.86 0 17.06z"/>
   <path class="fil1" d="M12715.63 12159.03l4295.22 0 0 -494.09 -154.87 0 0 111.79 0 11.2 0 0.48c-0.27,52.51 -43.3,95.37 -95.86,95.37 -52.57,0 -95.59,-42.86 -95.86,-95.37l0 -0.48 0 -11.2 0 -111.79 -82 0 0 111.79 0 11.2 0 0.48c-0.26,52.51 -43.29,95.37 -95.85,95.37 -52.57,0 -95.6,-42.86 -95.86,-95.37l0 -0.48 0 -11.2 0 -111.79 -3024.08 0 0 111.79 0 11.2 0 0.48c-0.26,52.51 -43.29,95.37 -95.86,95.37 -52.56,0 -95.59,-42.86 -95.85,-95.37l0 -0.48 0 -11.2 0 -111.79 -82 0 0 111.79 0 11.2 0 0.48c-0.27,52.51 -43.29,95.37 -95.86,95.37 -52.56,0 -95.59,-42.86 -95.86,-95.37l0 -0.48 0 -11.2 0 -111.79 -185.41 0 0 494.09z"/>
   <path class="fil1" d="M13605.1 8368.31l343.89 0 0 295.32c0,29.4 24.04,53.44 53.44,53.44l150.6 0c29.4,0 53.44,-24.04 53.44,-53.44l0 -295.32 272.14 0 0 295.32c0,29.4 24.04,53.44 53.44,53.44l150.6 0c29.4,0 53.44,-24.04 53.44,-53.44l0 -295.32 234.26 0 0 295.32c0,29.4 24.04,53.44 53.44,53.44l150.6 0c29.4,0 53.43,-24.04 53.43,-53.44l0 -295.32 281.56 0 0 295.32c0,29.4 24.03,53.44 53.43,53.44l150.6 0c29.4,0 53.44,-24.04 53.44,-53.44l0 -295.32 321.68 0 29.98 664.92c90.54,43.76 141.39,92.94 141.39,144.9 0,49.46 -46.1,96.39 -128.61,138.53l105.87 2348.28 -2729.75 0 69.59 -2348.34c-82.46,-42.14 -128.53,-89.03 -128.53,-138.47 0,-51.09 49.15,-99.48 136.86,-142.7l19.77 -667.12zm1234.41 1382.51l29.35 0c182.94,0 332.61,149.66 332.61,332.61l0 508.7c0,182.94 -149.67,332.61 -332.61,332.61l-29.35 0c-182.94,0 -332.6,-149.67 -332.6,-332.61l0 -508.7c0,-182.95 149.66,-332.61 332.6,-332.61z"/>
   <path class="fil1" d="M14842.09 8368.31l33 0 0 -1622.81c34.01,-7.78 59.47,-39.1 59.47,-76.55 0,-43.3 -34.03,-78.4 -76.01,-78.4 -41.98,0 -76.01,35.1 -76.01,78.4 0,37.48 25.49,68.81 59.55,76.56l0 1622.8z"/>
   <path class="fil1" d="M14961.73 6784.2c2.81,103.51 5.6,207.01 8.41,310.51 240.33,-2.81 480.67,-5.62 721,-8.43 -149.82,-95.07 -299.63,-190.16 -421.19,-240.51 -121.58,-50.34 -214.89,-55.95 -308.22,-61.57z"/>
   <path class="fil4" d="M15897.53 12531.41l91.64 1037.94c0,24.85 -151.71,443.12 -169.59,477.81l-59.03 115.25c-42.08,91.74 50.49,114.24 97.94,46.89l17.09 -21.16c61.85,-75.06 130.18,-180.67 182.65,-263.68l126.34 -200.95c20.99,-38.23 87.68,-140.76 118.47,-145.3 31.85,-4.7 35.85,42.77 39.74,63.58l11.13 61.12c21.62,86.26 47.81,168.47 89.27,246.5 49.41,92.99 116.41,177.7 201.34,240.74 39.28,29.14 169.53,90.17 211.64,51.62 6.04,-5.53 2.01,-0.38 5.91,-7.02 23.98,-40.9 -61.71,-153.52 -79.4,-182.69 -48.8,-80.44 -93.46,-169.34 -122.61,-259.93 -13.5,-41.98 -30.33,-81.23 -41.45,-124.3l-51.44 -165.34c-12.14,-41.91 -25.92,-84.32 -33.73,-127.77l-31.91 -155.09c-2.77,-18.58 -1.59,-10.15 -5.6,-24.16 -4.51,-15.73 -5.13,-31.33 -7.5,-47.74 -3,-20.7 -6.13,-21.98 -8.72,-46.53l-20.94 -144.81c0,-66.84 -2.29,-123.06 38.75,-178 50.57,-67.71 163.6,-46.45 235.1,-36.23l130.07 10.24c57.32,0 195.32,-22.51 253.9,-43.71 8.56,-3.1 6.61,-3.01 15.19,-6.06 45.36,-16.15 93.06,-35.16 134.11,-57.19l45.72 -26.54c19.32,-13.89 42,-29.04 48.54,-53.5 -16.17,-24.13 -47.58,-21.24 -76.54,-21.24l-262.46 13.9c-114.36,15.12 -190.66,3.66 -298.81,-1.12 -15.65,-0.69 -21.03,-3.38 -36.33,-6.19 -26.2,-4.82 -50.96,-3.16 -75.7,-9.32l-52.71 -11.06c-38.57,-11.42 -83.59,-17.52 -123.4,-29.66l-195.38 -68.2c-90,-37.78 -176.64,-82.54 -262.68,-128.41l-84.94 -46.85c-66.16,-35.28 -126.11,-77.64 -190.62,-115.46 -72.77,-42.67 -155.64,-112.4 -225.18,-165.9l-95.32 -78.97c-8.85,-7.45 -13.36,-12.96 -22.13,-20.38l-121.81 -111.99c-0.65,-0.58 -1.6,-1.4 -2.26,-1.98 -50.08,-43.88 -97.35,-93.08 -141.85,-142.95l-105.64 -111.15c-24.96,-29.86 -118.63,-126.2 -156.67,-145.35 -89.62,-45.11 -28.26,138.29 -19.56,164.26 7.91,23.64 15.62,40.76 23.76,61.24 4.92,12.38 7.73,18.34 13.64,28.86l33.17 56.1c4.49,6.29 4.81,6.78 8.61,12.63l6.68 10.33c0.49,0.76 1.2,1.79 1.7,2.55 43.91,66.93 109.43,127.62 171.31,177.25l71.37 60.41c0.67,0.57 1.61,1.4 2.29,1.96l4.62 3.88c0.95,0.8 3.66,3.1 4.59,3.91l64.99 54.03c0.67,0.57 1.63,1.39 2.3,1.96l188.41 147.42c90.23,74.56 249.69,181.77 352.07,255.81 29.1,21.04 105.17,66.82 124.41,92.38 5.93,7.87 13.45,20.64 13.45,33.31z"/>
   <path class="fil4" d="M12563.31 12736.55c0,37.54 11.8,64.46 34.93,92.58 24.22,29.45 50.26,51.23 87.02,66.02 0.96,0.38 2.07,0.83 3.04,1.2 34.93,13.71 66.97,14.97 103.54,19.76l98.86 7.43c62.42,0 131.24,-18.2 191.31,-29.76 17.94,-3.45 20.25,-5.46 36.79,-9.98 26.89,-7.35 48.38,-12.41 73.33,-20.2l135.29 -47.52c18.49,-7 41.17,-17.76 62.56,-26.72 13.64,-5.69 21.54,-8.95 32.68,-14.08 12.35,-5.69 19.09,-9.87 33.53,-13.23 0,199.83 0.55,102.28 -73.01,237.26l-77.51 118.01c-70.78,100.78 -132.71,206.69 -201.53,308.55 -17.4,25.76 -88.14,123.89 -90.14,147.89l61.22 -15.3c61.24,-20.44 196.83,-40.63 240.63,23.82 0.51,0.76 1.2,1.79 1.68,2.57 0.49,0.79 1.14,1.84 1.6,2.65 0.64,1.12 2.32,4.45 2.89,5.62 3.9,8.05 5.8,12.37 8.25,21.5 24.69,91.77 -12,206.64 -40.22,281.8l-8.73 25.28c-39.51,99.98 -90.06,197.9 -150.73,287.06 -27.59,40.52 -158.93,214.95 -31.55,214.95 51.55,0 91.96,-17.28 128.61,-49.93l90 -105.53 56.92 -96.11c4.82,-8.76 7.75,-16.27 12.12,-26.12l81.71 -190.31c3.99,-10.03 5.95,-17.87 9.71,-28.56l34.45 -122.8c15.63,-54.8 16.98,-184.55 21,-204.25 2.54,-12.38 3.92,-12.64 11.99,-17.77 18.65,-11.83 182.75,-69.39 182.75,76.42 0,29.99 -2.08,50.93 -4.39,80.61 -1.3,16.85 -5.82,19.58 -7.77,34.73l-11.04 78.22c-2.32,14.64 -1.76,27.99 -4.77,41.96 -7.23,33.46 -4.43,45.81 -6.4,83.13 -2.33,43.99 8.15,199.95 26.79,246.26 8.19,20.37 18.7,39.31 33.58,55.68 45.54,50.09 132.69,34.35 132.69,-43.38l-3.83 -76.92c-16.55,-149.34 -109.95,-370.95 -53.55,-522.27 14.7,-39.44 39.44,-63.61 78.89,-78.39 40.22,-15.07 93.35,-11.02 133.89,-5.34l68.5 16.54c12.32,3.26 32.3,8.1 46.84,8.43 -3.46,-14.88 1.03,-1.28 -5.94,-15.31 -28.2,-56.73 -64.23,-109.25 -94.03,-165.26 -13.55,-25.48 -30.22,-47.44 -40.35,-74.4l-48.87 -163.65c-24.81,-84.83 -42.01,-195.1 -44.52,-282.73 -0.6,-21.1 -4.08,-21.42 -4.67,-42.37l26.92 -207.11c44.85,-169.52 257.66,-361.11 391.98,-474.6 186.06,-157.16 198.08,-165.63 314.54,-383.12 2.63,-6.53 4.88,-13.68 6.75,-18.76 12.7,-34.39 24.37,-72.47 30.28,-109.98 4.8,-30.39 25.75,-89.86 -26.13,-89.86 -19.89,0 -66.45,55.08 -80.78,72.25 -0.56,0.67 -1.35,1.65 -1.92,2.33 -0.79,0.95 -3.08,3.67 -3.89,4.61 -3.3,3.85 -2.85,3.42 -5.98,6.78l-169.12 196.44c-0.56,0.67 -1.35,1.65 -1.91,2.32 -100.52,109.76 -188.16,195.29 -297.23,297.89 -70.82,59.69 -139.39,121.98 -212.94,178.13 -68.95,52.64 -136.09,105.62 -211.23,150.12 -54.44,32.24 -111.99,62.35 -171.02,84.04l-83.74 31.04c-49.11,16.64 -105.78,28.31 -153.66,41.91l-128.9 24.15c-26.53,2.03 -22.06,0.03 -45.02,6 -25.24,6.57 -238.25,18.07 -287.05,23.32 -46.51,5.02 -245.99,-7.18 -245.99,64.36z"/>
   <path class="fil4" d="M12736.17 12143.04c43.69,73.73 60.06,35.02 71.31,-25.15l6.69 -82.56 -11.2 -52.56c-8.67,-36.11 -7.29,-47.27 13.25,-85.62 30.77,-47.38 101.86,-108.3 159.52,-108.3 64.68,0 68.02,-0.43 68.02,63.74 0,33.22 -21.26,76.45 -21.26,110.5 0,183.01 49.6,356.23 257.44,401.41 209.52,45.62 426.12,-34.77 578.62,-177.72 133.25,-156.17 138.26,-288.61 31.98,-453.85 -361.52,-455.53 -790.41,-12.08 -791.5,-12.08 -59.54,0 -63.33,-140.49 -43.95,-188.41 25.28,-62.47 62.2,-102.1 123.47,-127.34 24.85,-10.23 55.33,-16.16 74.79,-35.74 39.01,-39.25 -6.23,-120.24 -56.53,-120.24 -76.35,0 -151.66,128 -176.78,193.03 -37.94,98.23 6.82,210.63 -92.75,285.53 -141.15,106.16 -332.82,176.19 -191.12,415.36z"/>
   <path class="fil4" d="M16248.21 12278.63l43.46 7.56c86.26,10.96 167.73,-0.09 245.12,-38.02 7.29,-3.58 10.12,-5.51 16.49,-9.02 5.65,-3.11 11.62,-5.98 16.47,-9.04 79.89,-50.29 123.54,-107.47 167.62,-189.43 17.82,-33.12 33.53,-75.39 40.29,-112.73 51.53,-284.86 -172.01,-467.49 -437.95,-467.49 -397.96,0 -714.92,649.43 -91.5,818.17z"/>
  </g>
 </g>
</svg>
